<mxfile host="app.diagrams.net" modified="2023-04-21T06:16:12.925Z" agent="5.0 (Windows NT 10.0; Win64; x64) AppleWebKit/537.36 (KHTML, like Gecko) Chrome/112.0.0.0 Safari/537.36 Edg/112.0.1722.48" etag="lqqul8DWAhlAEOzJlfh-" version="20.8.20" type="github">
  <diagram id="6a731a19-8d31-9384-78a2-239565b7b9f0" name="Page-1">
    <mxGraphModel dx="1434" dy="796" grid="1" gridSize="10" guides="1" tooltips="1" connect="1" arrows="1" fold="1" page="1" pageScale="1" pageWidth="1169" pageHeight="827" background="none" math="0" shadow="0">
      <root>
        <mxCell id="0" />
        <mxCell id="1" parent="0" />
        <mxCell id="1769" value="Segmentation" style="rounded=1;whiteSpace=wrap;html=1;shadow=0;labelBackgroundColor=none;strokeColor=none;strokeWidth=3;fillColor=#f5af58;fontFamily=Helvetica;fontSize=14;fontColor=#FFFFFF;align=center;spacing=5;arcSize=7;perimeterSpacing=2;" parent="1" vertex="1">
          <mxGeometry x="295" y="110.5" width="150" height="60" as="geometry" />
        </mxCell>
        <mxCell id="kk1tNPxJDdmJw3Zyzxyh-1779" value="小学数学" style="swimlane;whiteSpace=wrap;html=1;shadow=0;sketch=1;curveFitting=1;jiggle=2;fontFamily=方正徐静蕾体;fontSource=http%3A%2F%2Fwww.ps3000.com%2Ffonts%2F%25E6%2596%25B9%25E6%25AD%25A3%25E9%259D%2599%25E8%2595%25BE%25E7%25AE%2580%25E4%25BD%2593_%25E5%25BE%2590%25E9%259D%2599%25E8%2595%25BE%25E6%2589%258B%25E5%2586%2599%25E4%25BD%2593.fon;fontSize=19;" vertex="1" parent="1">
          <mxGeometry x="260" y="290" width="755" height="554" as="geometry">
            <mxRectangle x="460" y="500" width="140" height="30" as="alternateBounds" />
          </mxGeometry>
        </mxCell>
        <mxCell id="kk1tNPxJDdmJw3Zyzxyh-1782" style="edgeStyle=orthogonalEdgeStyle;rounded=0;orthogonalLoop=1;jettySize=auto;html=1;entryX=0;entryY=0.5;entryDx=0;entryDy=0;fontFamily=方正徐静蕾体;fontSource=http%3A%2F%2Fwww.ps3000.com%2Ffonts%2F%25E6%2596%25B9%25E6%25AD%25A3%25E9%259D%2599%25E8%2595%25BE%25E7%25AE%2580%25E4%25BD%2593_%25E5%25BE%2590%25E9%259D%2599%25E8%2595%25BE%25E6%2589%258B%25E5%2586%2599%25E4%25BD%2593.fon;fontSize=36;sketch=1;curveFitting=1;jiggle=2;elbow=vertical;curved=1;" edge="1" parent="kk1tNPxJDdmJw3Zyzxyh-1779" source="kk1tNPxJDdmJw3Zyzxyh-1780" target="kk1tNPxJDdmJw3Zyzxyh-1781">
          <mxGeometry relative="1" as="geometry" />
        </mxCell>
        <mxCell id="kk1tNPxJDdmJw3Zyzxyh-1786" style="edgeStyle=orthogonalEdgeStyle;curved=1;rounded=0;sketch=1;orthogonalLoop=1;jettySize=auto;html=1;entryX=0;entryY=0.5;entryDx=0;entryDy=0;fontFamily=方正徐静蕾体;fontSource=http%3A%2F%2Fwww.ps3000.com%2Ffonts%2F%25E6%2596%25B9%25E6%25AD%25A3%25E9%259D%2599%25E8%2595%25BE%25E7%25AE%2580%25E4%25BD%2593_%25E5%25BE%2590%25E9%259D%2599%25E8%2595%25BE%25E6%2589%258B%25E5%2586%2599%25E4%25BD%2593.fon;fontSize=36;elbow=vertical;" edge="1" parent="kk1tNPxJDdmJw3Zyzxyh-1779" source="kk1tNPxJDdmJw3Zyzxyh-1780" target="kk1tNPxJDdmJw3Zyzxyh-1784">
          <mxGeometry relative="1" as="geometry" />
        </mxCell>
        <mxCell id="kk1tNPxJDdmJw3Zyzxyh-1787" style="edgeStyle=orthogonalEdgeStyle;curved=1;rounded=0;sketch=1;orthogonalLoop=1;jettySize=auto;html=1;entryX=0;entryY=0.5;entryDx=0;entryDy=0;fontFamily=方正徐静蕾体;fontSource=http%3A%2F%2Fwww.ps3000.com%2Ffonts%2F%25E6%2596%25B9%25E6%25AD%25A3%25E9%259D%2599%25E8%2595%25BE%25E7%25AE%2580%25E4%25BD%2593_%25E5%25BE%2590%25E9%259D%2599%25E8%2595%25BE%25E6%2589%258B%25E5%2586%2599%25E4%25BD%2593.fon;fontSize=36;elbow=vertical;" edge="1" parent="kk1tNPxJDdmJw3Zyzxyh-1779" source="kk1tNPxJDdmJw3Zyzxyh-1780" target="kk1tNPxJDdmJw3Zyzxyh-1785">
          <mxGeometry relative="1" as="geometry" />
        </mxCell>
        <mxCell id="kk1tNPxJDdmJw3Zyzxyh-1780" value="数" style="rounded=0;whiteSpace=wrap;html=1;sketch=1;curveFitting=1;jiggle=2;fontFamily=方正徐静蕾体;fontSource=http%3A%2F%2Fwww.ps3000.com%2Ffonts%2F%25E6%2596%25B9%25E6%25AD%25A3%25E9%259D%2599%25E8%2595%25BE%25E7%25AE%2580%25E4%25BD%2593_%25E5%25BE%2590%25E9%259D%2599%25E8%2595%25BE%25E6%2589%258B%25E5%2586%2599%25E4%25BD%2593.fon;fontSize=36;fillColor=#007FFF;" vertex="1" parent="kk1tNPxJDdmJw3Zyzxyh-1779">
          <mxGeometry x="50" y="200" width="80" height="60" as="geometry" />
        </mxCell>
        <mxCell id="kk1tNPxJDdmJw3Zyzxyh-1781" value="自然数" style="rounded=0;whiteSpace=wrap;html=1;sketch=1;curveFitting=1;jiggle=2;fontFamily=方正徐静蕾体;fontSource=http%3A%2F%2Fwww.ps3000.com%2Ffonts%2F%25E6%2596%25B9%25E6%25AD%25A3%25E9%259D%2599%25E8%2595%25BE%25E7%25AE%2580%25E4%25BD%2593_%25E5%25BE%2590%25E9%259D%2599%25E8%2595%25BE%25E6%2589%258B%25E5%2586%2599%25E4%25BD%2593.fon;fontSize=36;fillColor=#007FFF;shadow=0;" vertex="1" parent="kk1tNPxJDdmJw3Zyzxyh-1779">
          <mxGeometry x="360" y="104" width="120" height="60" as="geometry" />
        </mxCell>
        <mxCell id="kk1tNPxJDdmJw3Zyzxyh-1784" value="小数" style="rounded=0;whiteSpace=wrap;html=1;sketch=1;curveFitting=1;jiggle=2;fontFamily=方正徐静蕾体;fontSource=http%3A%2F%2Fwww.ps3000.com%2Ffonts%2F%25E6%2596%25B9%25E6%25AD%25A3%25E9%259D%2599%25E8%2595%25BE%25E7%25AE%2580%25E4%25BD%2593_%25E5%25BE%2590%25E9%259D%2599%25E8%2595%25BE%25E6%2589%258B%25E5%2586%2599%25E4%25BD%2593.fon;fontSize=36;fillColor=#007FFF;shadow=0;" vertex="1" parent="kk1tNPxJDdmJw3Zyzxyh-1779">
          <mxGeometry x="360" y="190" width="120" height="60" as="geometry" />
        </mxCell>
        <mxCell id="kk1tNPxJDdmJw3Zyzxyh-1785" value="分数" style="rounded=0;whiteSpace=wrap;html=1;sketch=1;curveFitting=1;jiggle=2;fontFamily=方正徐静蕾体;fontSource=http%3A%2F%2Fwww.ps3000.com%2Ffonts%2F%25E6%2596%25B9%25E6%25AD%25A3%25E9%259D%2599%25E8%2595%25BE%25E7%25AE%2580%25E4%25BD%2593_%25E5%25BE%2590%25E9%259D%2599%25E8%2595%25BE%25E6%2589%258B%25E5%2586%2599%25E4%25BD%2593.fon;fontSize=36;fillColor=#007FFF;shadow=0;" vertex="1" parent="kk1tNPxJDdmJw3Zyzxyh-1779">
          <mxGeometry x="360" y="290" width="120" height="60" as="geometry" />
        </mxCell>
      </root>
    </mxGraphModel>
  </diagram>
</mxfile>
